<?xml version="1.0" encoding="utf-8"?>
<!-- Generator: Adobe Illustrator 27.6.1, SVG Export Plug-In . SVG Version: 6.00 Build 0)  -->
<svg version="1.1" id="Layer_1" xmlns="http://www.w3.org/2000/svg" xmlns:xlink="http://www.w3.org/1999/xlink" x="0px" y="0px"
	 width="171.1px" height="62.9px" viewBox="0 0 171.1 62.9" style="enable-background:new 0 0 171.1 62.9;" xml:space="preserve">
<g id="LB_Pressed">
	<path style="fill:#1C1C1C;stroke:#FFFFFF;stroke-miterlimit:10;" d="M134.2,0.8C92-4.9,38.3,22.2,20,32.1c-0.3,0.2-0.6,0.3-0.8,0.5
		c-0.1,0.1-0.2,0.1-0.2,0.2c-0.2,0.1-0.4,0.2-0.5,0.3c-0.1,0.1-0.2,0.1-0.3,0.2c-0.1,0.1-0.3,0.2-0.5,0.3l-0.3,0.2
		c-0.1,0.1-0.3,0.2-0.4,0.3l-0.3,0.2l-0.4,0.3L16,34.7c-0.1,0.1-0.3,0.2-0.4,0.3c-0.1,0-0.2,0.1-0.2,0.2L15,35.4l-0.2,0.2
		c-0.1,0.1-0.2,0.2-0.4,0.3c-0.1,0.1-0.1,0.1-0.2,0.2c-0.1,0.1-0.2,0.2-0.3,0.3c-0.1,0.1-0.1,0.1-0.2,0.2l-0.3,0.3L13.2,37
		c-0.1,0.1-0.2,0.2-0.3,0.3c0,0-0.1,0.1-0.1,0.2c-0.1,0.1-0.2,0.2-0.3,0.3c0,0-0.1,0.1-0.1,0.1c-0.1,0.1-0.2,0.3-0.3,0.4l-0.1,0.1
		l-0.3,0.4l-0.1,0.1c-0.1,0.1-0.2,0.3-0.3,0.5l0,0c0,0-0.2,0.3-0.3,0.5s97.7-42,122-34.4c15.5,4.9,27.2,15.3,32.8,18.2l3.4-6.4
		C156.7,13.8,142.1,1.8,134.2,0.8z"/>
	<g>
		<path style="fill:#E5E5E5;" d="M166.2,24l0.5,0.2L166.2,24z"/>
		<path style="stroke:#FFFFFF;stroke-miterlimit:10;" d="M165.7,23.7c-5.6-2.9-17.3-13.4-32.8-18.2c-24.2-7.6-121.3,34.1-122,34.4
			c-5,7.4-2.2,15.3-10.8,23H0C33.2,45,99.2,24.8,118.8,28.5c9.1,1.8,19.9,12.1,31.1,24.8L165.7,23.7L165.7,23.7z"/>
		<path style="fill:#FFFFFF;" d="M165.7,23.7l0.5,0.2L165.7,23.7z"/>
	</g>
	<path style="fill:#FFFFFF;" d="M150.6,54.1c0.2,0.3,0.5,0.6,0.7,0.8l16.4-30.5l3.5-6.5c-0.3-0.1-0.7-0.1-1-0.2s-0.7-0.2-1-0.3
		l-3.4,6.3l-15.9,29.6L150.6,54.1L150.6,54.1"/>
</g>
</svg>
