<?xml version="1.0" encoding="utf-8"?>
<!-- Generator: Adobe Illustrator 27.6.1, SVG Export Plug-In . SVG Version: 6.00 Build 0)  -->
<svg version="1.1" id="Layer_1" xmlns="http://www.w3.org/2000/svg" xmlns:xlink="http://www.w3.org/1999/xlink" x="0px" y="0px"
	 width="70.7px" height="128px" viewBox="0 0 70.7 128" style="enable-background:new 0 0 70.7 128;" xml:space="preserve">
<g>
	<g id="Up">
		<g>
			<path style="fill:#141414;" d="M40.4,41.5V7.3c0,0,0-0.1,0-0.1L40.5,7l0.1-0.1c0.5-0.8,2.1-1.5,4.5-2L46,4.7
				c0.3-0.1,0.7-0.1,1-0.1h0.2L48,4.4l1-0.1l1-0.1l2.4-0.1h1c7.3,0,13.1,1.4,13.1,3.2v34.2l-12.9,13L40.4,41.5z"/>
			<path style="fill:#EDF4F4;" d="M53.5,4.6c8.1,0,12.6,1.6,12.6,2.7v34L53.5,53.9L40.9,41.3v-34l0,0l0,0V7.2l0,0
				c0.2-0.2,0.9-1.1,4.2-1.8h0.1L46,5.3h0.1c0.3-0.1,0.6-0.1,0.8-0.1h0.2L48,5l0,0l1-0.1l0,0l1-0.1h1.2c0.3,0,0.7,0,1,0h0.1h1
				 M53.4,3.9h-1h-0.1h-1h-0.2c-0.3,0-0.7,0-1,0H50l-1,0.1l0,0l-1,0.1l0,0L47,4h-0.1c-0.3,0-0.6,0.1-0.9,0.1h-0.1
				c-0.3,0-0.6,0.1-0.9,0.2l0,0c-2.4,0.5-4.2,1.2-4.9,2.2c0,0-0.1,0.1-0.1,0.2l0,0c0,0.1,0,0.1,0,0.2s0,0,0,0V7c0,0.1,0,0.1,0,0.2
				v34.5l13.4,13.6l13.6-13.6V7.3l0,0c0-2.5-6.8-3.7-13.6-3.7L53.4,3.9z"/>
		</g>
		<path style="fill:#262626;" d="M45,4.3L45,4.3l0.9-0.2H46c0.3-0.1,0.6-0.1,0.9-0.1H47l1-0.1l0,0l1-0.1l0,0l1-0.1h0.1h1h0.2h1h0.1
			h1.1C60.3,3.7,67,4.9,67,7.4l2.8-2.8c-0.9-1.5-2.7-2.8-6.1-3.7c-3.3-0.7-6.8-1.1-10.2-1c-3.4-0.1-6.8,0.3-10.2,1
			c-2.9,0.7-4.7,1.8-5.7,3l2.6,2.6C40.8,5.6,42.6,4.8,45,4.3z"/>
		<path style="fill:#1C1C1C;" d="M67.1,7.3L67.1,7.3v34.4l3.6-3.6V7.3c0-1-0.3-2-0.8-2.8L67.1,7.3z"/>
		<path style="fill:#2B2B2B;" d="M39.9,7.3c0-0.1,0-0.1,0-0.2c0,0,0-0.1,0.1-0.1l0,0c0-0.1,0-0.1,0-0.2l0,0c0-0.1,0.1-0.1,0.1-0.2
			L37.6,4c-0.8,0.9-1.3,2.1-1.3,3.3v30.8l3.6,3.6V7.3z"/>
	</g>
	<g id="Down">
		<g>
			<path style="fill:#141414;" d="M17.2,51.2c-7.1,0-12.8-1.3-13-3.1c0,0,0-0.1,0-0.1V13.8l13-13.1l13.1,13.1V48c0,0,0,0.1,0,0.2
				C29.9,49.9,24.3,51.2,17.2,51.2z"/>
			<path style="fill:#EDF4F4;" d="M17.2,1.4L29.7,14v34c0,0,0,0,0,0.1c-0.2,1.1-4.7,2.7-12.5,2.7S4.8,49.2,4.6,48.1c0,0,0,0,0-0.1
				V14L17.2,1.4 M17.2,0L3.6,13.6V48l0,0c0,0.1,0,0.2,0,0.2c0.4,2.3,7,3.5,13.5,3.5s13.1-1.2,13.5-3.5c0-0.1,0-0.2,0-0.2V13.6
				L17.2,0z"/>
		</g>
		<path style="fill:#0F0F0F;" d="M30.7,48l2.8,2.8C34,50,34.3,49,34.3,48V17.2l-3.6-3.6L30.7,48z"/>
		<path style="fill:#191919;" d="M30.7,48.2c-0.4,2.3-7,3.5-13.5,3.5S4,50.5,3.6,48.2c0-0.1,0-0.2,0-0.2l-2.8,2.8
			c0.9,1.4,2.7,2.7,6.2,3.5c3.3,0.7,6.8,1.1,10.2,1c3.4,0.1,6.8-0.3,10.2-1c3.4-0.8,5.2-2.2,6.1-3.5L30.7,48
			C30.7,48.1,30.7,48.1,30.7,48.2z"/>
		<path style="fill:#1C1C1C;" d="M3.6,48L3.6,48V13.6L0,17.2v31.7l0.1,0.2c0.1,0.6,0.4,1.2,0.7,1.7L3.6,48z"/>
	</g>
</g>
<g>
	<g id="Right">
		<g>
			<path style="fill:#141414;" d="M13.8,87.6L0.7,74.5l13.1-13.1H48c1.8,0,3.2,5.7,3.2,13.1S49.8,87.6,48,87.6H13.8z"/>
			<path style="fill:#EDF4F4;" d="M48,61.9c1.1,0,2.7,4.8,2.7,12.6S49.1,87.1,48,87.1H14L1.4,74.5L14,61.9H48 M48,60.9H13.6L0,74.5
				l13.6,13.6H48C53,88.1,53,60.9,48,60.9z"/>
		</g>
		<path style="fill:#191919;" d="M48,60.9l2.8-2.8c-0.8-0.5-1.8-0.8-2.8-0.8H17.2L13.6,61L48,60.9z"/>
		<path style="fill:#191919;" d="M48,88.1H13.6l3.6,3.6h32.3l0.3-0.3c0.3-0.1,0.6-0.3,0.9-0.5L48,88.1z"/>
		<path style="fill:#0F0F0F;" d="M50.7,58.2L48,60.9c5,0,5,27.1,0,27.1l2.8,2.8c1.4-0.9,2.7-2.7,3.5-6.1c0.7-3.3,1.1-6.8,1-10.2
			c0.1-3.4-0.3-6.8-1-10.2C53.5,60.9,52.1,59.1,50.7,58.2z"/>
	</g>
	<g id="left">
		<g>
			<path style="fill:#141414;" d="M7.3,123.9c-1.8,0-3.2-5.7-3.2-13.1s1.4-13.1,3.2-13.1h34.2l13.1,13.1l-13.1,13.1H7.3z"/>
			<path style="fill:#EDF4F4;" d="M41.3,98.3l12.6,12.6l-12.6,12.6h-34c-1.2,0-2.8-4.8-2.8-12.6s1.6-12.6,2.7-12.6H41.3 M41.8,97.3
				H7.3c-5,0-5,27.1,0,27.1h34.4l13.6-13.6L41.8,97.3L41.8,97.3z"/>
		</g>
		<path style="fill:#262626;" d="M41.8,97.3l-3.6-3.6H7.3c-1,0-2,0.3-2.8,0.8l2.8,2.8H41.8z"/>
		<path style="fill:#2B2B2B;" d="M7.3,97.3L7.3,97.3l-2.8-2.8c-1.4,0.9-2.7,2.7-3.5,6.1c-1.4,6.7-1.4,13.7,0,20.4
			c0.9,3.4,2.2,5.2,3.5,6.1l2.8-2.8C2.3,124.4,2.3,97.3,7.3,97.3z"/>
		<path style="fill:#1C1C1C;" d="M7.3,124.4l-2.8,2.8c0.8,0.5,1.8,0.8,2.8,0.8h30.8l3.6-3.6L7.3,124.4z"/>
	</g>
</g>
</svg>
