<?xml version="1.0" encoding="utf-8"?>
<!-- Generator: Adobe Illustrator 27.6.1, SVG Export Plug-In . SVG Version: 6.00 Build 0)  -->
<svg version="1.1" id="Layer_1" xmlns="http://www.w3.org/2000/svg" xmlns:xlink="http://www.w3.org/1999/xlink" x="0px" y="0px" width="168.77" height="83.38"
	 viewBox="0 0 168.8 83.4" style="enable-background:new 0 0 168.8 83.4;" xml:space="preserve">
<style type="text/css">
	.st0{fill:#FAA1DF;}
	.st1{fill:#FFB3EF;}
	.st2{fill:#E094D0;}
	.st3{display:none;opacity:6.000000e-02;}
	.st4{display:inline;fill:#FFFFFF;}
	.st5{fill:#E5E5E5;}
	.st6{fill:#BFBFBF;}
	.st7{fill:#D9D9D9;}
	.st8{opacity:6.000000e-02;}
	.st9{fill:#DEDEDE;}
</style>
<g>
	<g>
		<path class="st0" d="M168.8,41.7c0,23-18.7,41.7-41.7,41.7S85.4,64.7,85.4,41.7c0-23,18.7-41.7,41.7-41.7
			C150.1,0,168.8,18.6,168.8,41.7C168.8,41.7,168.8,41.7,168.8,41.7z"/>
		<path class="st1" d="M127.1,0h-1.3h-0.8l1,20c0.3,0,0.7,0,1,0L127.1,0L127.1,0z M123.1,0.2h-0.2h-0.2c-0.6,0.1-1.1,0.1-1.7,0.2
			l2.8,19.8c0.3,0,0.7-0.1,1-0.1L123.1,0.2z M119.1,0.8L119.1,0.8h-0.5c-0.5,0.1-1,0.2-1.4,0.3l4.7,19.4c0.3-0.1,0.7-0.2,1-0.2
			L119.1,0.8z M115.2,1.8L114.4,2l0,0h-0.1l0,0h-0.1l0,0l0,0l-0.9,0.3l6.6,18.9c0.3-0.1,0.7-0.2,1-0.3L115.2,1.8L115.2,1.8z
			 M111.5,3c-0.6,0.2-1.2,0.5-1.8,0.8L118,22c0.3-0.1,0.6-0.3,1-0.4L111.5,3z M107.8,4.7c-0.6,0.3-1.2,0.6-1.8,1L116.2,23
			c0.3-0.2,0.6-0.4,0.9-0.5L107.8,4.7z M104.4,6.7c-0.6,0.4-1.1,0.7-1.7,1.1L114.4,24l0.9-0.6L104.4,6.7L104.4,6.7z M101.1,9
			c-0.5,0.4-1,0.9-1.5,1.3l13.2,15c0.3-0.2,0.5-0.5,0.8-0.7L101.1,9L101.1,9z M98.1,11.7l-0.8,0.8l0,0l0,0l0,0l0,0l0,0l0,0l0,0
			L96.9,13l14.6,13.7c0.2-0.2,0.5-0.5,0.7-0.7L98.1,11.7L98.1,11.7z M95.4,14.6L95.4,14.6L95.4,14.6L95.4,14.6L95.4,14.6L95.4,14.6
			L95.4,14.6L95.4,14.6c-0.4,0.4-0.7,0.9-1.1,1.4l0,0l15.8,12.3c0.2-0.3,0.4-0.5,0.7-0.8l-15.2-13L95.4,14.6z M92.9,17.8L92.8,18
			l0,0l0,0l0,0c-0.3,0.5-0.6,0.9-0.9,1.4l16.9,10.7c0.2-0.3,0.4-0.6,0.6-0.9L92.9,17.8z M90.8,21.1l-0.4,0.8l0,0
			c-0.2,0.3-0.3,0.6-0.5,0.9l17.8,9c0.2-0.3,0.3-0.6,0.5-0.9L90.8,21.1L90.8,21.1z M89,24.7l-0.2,0.5l0,0v0.1l0,0v0.1l0,0
			c-0.2,0.4-0.3,0.8-0.5,1.3l18.6,7.3c0.1-0.3,0.3-0.6,0.4-1L89,24.7z M87.6,28.4c-0.1,0.3-0.2,0.5-0.3,0.8l0,0l0,0l0,0l0,0l0,0l0,0
			l0,0l0,0l0,0l0,0l0,0l0,0l0,0l0,0l0,0l0,0l0,0l0,0l0,0l0,0l0,0l0,0l0,0l0,0l0,0l0,0l0,0l0,0l0,0l0,0l0,0l0,0l0,0l0,0l0,0l0,0l0,0
			c-0.1,0.2-0.1,0.4-0.2,0.5l19.2,5.4c0.1-0.3,0.2-0.7,0.3-1l-19-6.4L87.6,28.4z M86.5,32.3c-0.1,0.5-0.2,1.1-0.3,1.6
			c0,0.1-0.1,0.2-0.1,0.4l19.7,3.5c0.1-0.3,0.1-0.7,0.2-1L86.5,32.3L86.5,32.3z M85.8,36.2l-0.2,1.3l0,0l0,0l0,0l0,0l0,0l0,0l0,0
			l-0.1,0.6l19.9,1.7c0-0.3,0.1-0.7,0.1-1L85.8,36.2L85.8,36.2z M85.4,40.2c0,0.3,0,0.6,0,1l0,0l0,0l0,0v0.1l0,0v0.2l0,0l0,0l0,0
			l0,0l0,0l0,0l0,0l0,0l0,0l0,0l0,0l0,0l0,0v0.4l20-0.2v0c0-0.3,0-0.5,0-0.8L85.4,40.2L85.4,40.2z M105.4,43l-20,1.2
			c0,0.6,0.1,1.1,0.1,1.7l0,0l0,0l0,0l0,0l0,0l0,0l0,0c0,0.1,0,0.1,0,0.2l19.9-2.1C105.4,43.6,105.4,43.3,105.4,43L105.4,43z
			 M105.7,45.1l-19.8,3.1l0,0l0,0l0,0l0,0l0,0l0,0c0.1,0.5,0.2,1,0.3,1.6l0,0l0,0l0,0l0,0l0,0l0,0l0,0c0,0,0,0.1,0,0.2l19.6-4
			c-0.1-0.3-0.1-0.7-0.2-1L105.7,45.1z M106.1,47.1l-19.4,5c0.2,0.7,0.3,1.3,0.5,1.9l19.1-5.9C106.2,47.8,106.2,47.5,106.1,47.1
			L106.1,47.1z M106.7,49.1l-18.8,6.8c0.2,0.6,0.5,1.2,0.7,1.9l18.5-7.7C106.9,49.8,106.8,49.4,106.7,49.1L106.7,49.1z M107.5,51
			l-18.1,8.6c0,0.1,0.1,0.2,0.1,0.2l0,0l0,0l0,0c0.2,0.4,0.4,0.7,0.6,1.1l0,0l0,0l0,0l0,0l0,0l0,0l0,0l0.2,0.3l17.6-9.5
			c-0.2-0.3-0.3-0.6-0.5-0.9L107.5,51z M108.5,52.8L91.3,63.1l0.3,0.5l0,0l0,0l0,0l0,0l0,0c0.2,0.4,0.5,0.8,0.7,1.1l16.7-11
			C108.8,53.4,108.6,53.1,108.5,52.8L108.5,52.8z M109.6,54.6L93.5,66.4l0.2,0.3l0,0l0,0l0,0l0,0l0,0l0,0l0,0l0,0l0,0l0,0l0,0l0,0
			l0,0l0,0l0,0l0,0l0,0l0,0l0,0l0,0l0,0l0,0l0,0l0,0l0,0l0,0l0,0c0.2,0.3,0.5,0.6,0.7,0.9L110,55c-0.2-0.3-0.4-0.5-0.6-0.8
			L109.6,54.6z M111,56.2L96.1,69.6c0.4,0.5,0.9,1,1.4,1.4l14.2-14.1C111.4,56.7,111.2,56.4,111,56.2L111,56.2z M112.4,57.7
			L98.9,72.4l0.8,0.7h0.1l0,0l0,0l0.7,0.6l12.8-15.3C112.9,58.1,112.6,57.8,112.4,57.7L112.4,57.7z M114,59l-12.1,16l0.9,0.7
			l0.7,0.5l11.3-16.5L114,59z M115.7,60.2l-10.5,17l0.1,0.1l0,0l0,0l0,0c0.5,0.3,1,0.6,1.5,0.9l0,0l9.7-17.5l-0.9-0.5L115.7,60.2z
			 M117.5,61.2l-8.8,18l0.3,0.2h0.2l0,0l0,0c0.4,0.2,0.8,0.4,1.3,0.6l7.9-18.4C118.1,61.4,117.8,61.3,117.5,61.2L117.5,61.2z
			 M119.4,62l-7,18.7c0.6,0.2,1.2,0.4,1.9,0.7l6.1-19L119.4,62L119.4,62z M121.4,62.6L116.2,82l0.2,0.1h0.2c0.5,0.1,1,0.3,1.5,0.4
			l4.3-19.5C122.1,62.8,121.7,62.7,121.4,62.6L121.4,62.6z M123.4,63.1l-3.3,19.7c0.5,0.1,1,0.2,1.5,0.2l0.5,0.1l2.4-19.9
			C124.1,63.2,123.8,63.1,123.4,63.1L123.4,63.1z M125.5,63.3l-1.4,20h0.4h0.1h1h0.5l0.5-20C126.2,63.3,125.9,63.3,125.5,63.3
			L125.5,63.3z M128.7,63.3l-1,0l0.5,20h0.6h0.1l1.2-0.1h0.1L128.7,63.3L128.7,63.3z M130.7,63.1c-0.3,0.1-0.7,0.1-1,0.2l2.4,19.9
			c0.6-0.1,1.2-0.2,1.8-0.3h0.1L130.7,63.1L130.7,63.1z M132.7,62.6c-0.3,0.1-0.7,0.2-1,0.2l4.3,19.5h0.2h0.2l0.8-0.2h0.4L138,82
			L132.7,62.6L132.7,62.6z M134.7,62l-1,0.3l6.1,19l0.9-0.3h0.2l0.8-0.3L134.7,62L134.7,62z M136.6,61.2l-0.9,0.4l7.9,18.4
			c0.4-0.2,0.7-0.3,1-0.5h0.2l0.6-0.3L136.6,61.2L136.6,61.2z M138.5,60.2c-0.3,0.2-0.6,0.4-0.9,0.5l9.7,17.5l0.2-0.1l0,0l0,0h0.1
			l0,0l0,0c0.5-0.3,0.9-0.5,1.4-0.8l-10.5-17L138.5,60.2z M140.2,59c-0.3,0.2-0.6,0.4-0.9,0.6l11.3,16.5c0.2-0.2,0.5-0.3,0.8-0.5
			l0,0l0,0l0,0l0,0l0,0l0,0h0.1l0,0l0,0l0.6-0.4L140.2,59z M141.8,57.7c-0.2,0.2-0.5,0.5-0.8,0.7l12.8,15.3h0.3l0,0l0,0l0,0l0,0
			c0.3-0.3,0.7-0.6,1-0.9h0.1l0,0l0,0l0,0l0,0L141.8,57.7L141.8,57.7z M143.2,56.2c-0.2,0.3-0.5,0.5-0.7,0.8l14.2,14l0,0l0,0l0,0
			c0.3-0.3,0.6-0.6,0.9-1l0,0l0,0l0,0l0,0l0,0l0,0l0,0l0.3-0.3L143.2,56.2L143.2,56.2z M144.6,54.6c-0.2,0.3-0.4,0.5-0.6,0.8
			L159.4,68l0,0l0,0l0,0l0,0l0,0l0,0l0,0l0,0l0,0l0,0l0,0c0.2-0.3,0.4-0.5,0.6-0.8l0,0l0,0l0,0l0,0l0,0l0,0l0,0l0,0l0,0l0.4-0.5
			L144.6,54.6L144.6,54.6z M145.7,52.8c-0.2,0.3-0.4,0.6-0.6,0.9l16.6,11.1l0.1-0.2l0,0l0,0c0.3-0.5,0.6-1,0.9-1.4l0,0l0,0l0,0
			L145.7,52.8L145.7,52.8z M146.7,51c-0.1,0.3-0.3,0.6-0.5,0.9l17.6,9.5l0.3-0.5c0.1-0.3,0.3-0.5,0.4-0.8l0,0l0,0l0,0l0,0l0,0l0,0
			l0,0c0-0.1,0.1-0.2,0.2-0.3L146.7,51L146.7,51z M147.5,49.1c-0.1,0.3-0.2,0.6-0.4,1l18.4,7.7l0.3-0.7l0,0l0,0l0,0l0,0l0,0l0,0l0,0
			c0.1-0.4,0.3-0.7,0.4-1.1l-18.8-6.8L147.5,49.1z M148.1,47.1c-0.1,0.3-0.2,0.7-0.3,1l19.1,5.9l0.1-0.4l0,0l0,0l0,0l0,0l0,0l0,0
			l0,0l0,0l0,0l0,0l0,0l0,0l0,0l0,0l0,0l0,0l0,0l0,0l0,0l0,0l0,0l0.3-1.2l-19.4-5L148.1,47.1z M148.5,45.1c0,0.3-0.1,0.7-0.2,1
			l19.6,4c0.1-0.6,0.2-1.2,0.3-1.7c0-0.1,0-0.2,0-0.2L148.5,45.1L148.5,45.1z M148.8,43c0,0.3,0,0.7-0.1,1l19.9,2.1
			c0-0.2,0.1-0.5,0.1-0.7l0,0l0,0l0,0l0,0l0,0l0,0c0-0.4,0.1-0.8,0.1-1.1v-0.1L148.8,43L148.8,43z M168.8,40.2l-20,0.7
			c0,0.3,0,0.5,0,0.8V42l20,0.2v-0.4l0,0l0,0l0,0l0,0l0,0l0,0l0,0v-0.1l0,0l0,0l0,0v-0.2l0,0l0,0l0,0v-0.3l0,0l0,0l0,0
			c0-0.2,0-0.3,0-0.4l0,0v-0.1l0,0v-0.2l0,0C168.8,40.4,168.8,40.3,168.8,40.2L168.8,40.2z M168.4,36.2l-19.8,2.6
			c0,0.3,0.1,0.7,0.1,1l19.9-1.7c0-0.2,0-0.3,0-0.5l0,0l0,0l0,0l0,0l0,0l0,0l0,0l0,0l0,0c0-0.5-0.1-0.9-0.2-1.4L168.4,36.2z
			 M167.7,32.3l-19.5,4.5c0.1,0.3,0.1,0.7,0.2,1l19.7-3.6l-0.2-1l0,0l0,0l0,0l0,0l0,0l0,0l0,0l0,0l0,0l0,0l0,0l0,0l0,0l0,0l0,0l0,0
			l0,0l0,0l0,0l0,0l0,0l0,0l0,0l-0.1-0.3l0,0v-0.1l0,0l0,0l0,0l-0.1-0.2L167.7,32.3z M166.6,28.4l-19,6.4c0.1,0.3,0.2,0.7,0.3,1
			l19.2-5.4l0,0l0,0l0,0l0,0l0,0l0,0l0,0c-0.1-0.5-0.3-1-0.4-1.5l0,0l0,0l0,0c0-0.1-0.1-0.2-0.1-0.3V28.4z M165.2,24.7l-18.3,8.2
			c0.1,0.3,0.3,0.6,0.4,1l18.6-7.3C165.7,26,165.4,25.3,165.2,24.7L165.2,24.7z M163.4,21.1L146,31c0.2,0.3,0.3,0.6,0.5,0.9l17.9-9
			c-0.3-0.5-0.5-1-0.8-1.5l0,0l0,0l0,0l0,0l0,0l0,0l0,0l0,0l0,0l0,0l0,0l0,0l0,0l0,0l0,0L163.4,21.1z M161.2,17.7l-16.4,11.5
			c0.2,0.3,0.4,0.6,0.6,0.9l16.9-10.7l-0.1-0.2l0,0l0,0l0,0l-0.7-1l0,0l0,0l0,0L161.2,17.7L161.2,17.7z M158.8,14.6l-15.2,13
			c0.2,0.3,0.4,0.5,0.7,0.8L160,16.1l-0.1-0.1l0,0l0,0l0,0l0,0l0,0l0,0l0,0l0,0l0,0l0,0l0,0l0,0l0,0l0,0l0,0l0,0l0,0l0,0l0,0l0,0
			l0,0l0,0l0,0l0,0l0,0l0,0l0,0l0,0l0,0l0,0l0,0l0,0l0,0l0,0l0,0l0,0l0,0l0,0l0,0l0,0l0,0l0,0l0,0l0,0l0,0l0,0l0,0l0,0l0,0l0,0l0,0
			l0,0l0,0l0,0l0,0l0,0l0,0l0,0l0,0l0,0l0,0l0,0l0,0l0,0l0,0l0,0l0,0l0,0l0,0l0,0l0,0l0,0l0,0l0,0l0,0l0,0l0,0l0,0l0,0l0,0l0,0l0,0
			l0,0l-0.1-0.1L158.8,14.6z M156,11.7l-13.9,14.4l0.7,0.7l14.6-13.7l0,0C157,12.6,156.5,12.1,156,11.7L156,11.7z M153,9l-12.4,15.7
			c0.3,0.2,0.5,0.4,0.8,0.7l13.2-15l-0.2-0.2l0,0l0,0l0,0L153,9z M149.8,6.7l-10.9,16.8c0.3,0.2,0.6,0.4,0.9,0.6l11.7-16.2L151,7.5
			h-0.1l-0.5-0.4h-0.1l-0.6-0.4L149.8,6.7z M146.3,4.7l-9.2,17.7c0.3,0.2,0.6,0.3,0.9,0.5l10.1-17.2l-0.4-0.2l0,0h-0.1l0,0l0,0l0,0
			C147.2,5.2,146.8,5,146.3,4.7L146.3,4.7z M142.7,3l-7.5,18.5l0.9,0.4l8.4-18.2h-0.3c-0.5-0.2-1-0.4-1.5-0.7L142.7,3z M138.9,1.7
			l-5.7,19.2l1,0.3l6.6-18.9l-1.3-0.4h-0.1L138.9,1.7L138.9,1.7z M135,0.8l-3.8,19.6l1,0.2L137,1.2h-0.2L135.9,1h-0.2
			C135.5,0.9,135.3,0.9,135,0.8L135,0.8z M131,0.2l-1.8,19.9c0.4,0,0.7,0.1,1,0.1l2.9-19.8l-0.5-0.1h-0.2l-0.9-0.1h-0.1L131,0.2
			L131,0.2z M127,0v20h1.1L129,0c-0.4,0-0.8,0-1.2,0H127z"/>
	</g>
	<path class="st2" d="M127.1,2c21.9,0,39.7,17.8,39.7,39.7c0,21.9-17.8,39.7-39.7,39.7c-21.9,0-39.7-17.8-39.7-39.7
		C87.4,19.8,105.2,2,127.1,2 M127.1,0c-23,0-41.7,18.7-41.7,41.7c0,23,18.7,41.7,41.7,41.7c23,0,41.7-18.7,41.7-41.7
		C168.8,18.7,150.1,0,127.1,0C127.1,0,127.1,0,127.1,0z"/>
	<g class="st3">
		<path class="st4" d="M163.1,41.7c0,19.9-16.1,36-36,36s-36-16.1-36-36s16.1-36,36-36S163.1,21.8,163.1,41.7z"/>
	</g>
	<g>
		<path class="st0" d="M127.1,69.8c-15.5,0-28.1-12.6-28.1-28.1c0-15.5,12.6-28.1,28.1-28.1c15.5,0,28.1,12.6,28.1,28.1l0,0
			C155.2,57.2,142.6,69.8,127.1,69.8z"/>
		<path class="st2" d="M127.1,16.6c13.9,0,25.2,11.2,25.2,25.1c0,13.9-11.2,25.2-25.1,25.2c-13.9,0-25.2-11.2-25.2-25.1
			c0,0,0,0,0-0.1C102,27.8,113.3,16.6,127.1,16.6 M127.1,10.6c-17.2,0-31.2,13.9-31.2,31.1s13.9,31.2,31.1,31.2
			c17.2,0,31.2-13.9,31.2-31.1c0,0,0,0,0-0.1C158.2,24.5,144.3,10.6,127.1,10.6C127.1,10.6,127.1,10.6,127.1,10.6L127.1,10.6z"/>
	</g>
</g>
<g id="LS_pressed">
	<g>
		<path class="st5" d="M83.4,41.7c0,23-18.7,41.7-41.7,41.7S0,64.7,0,41.7C0,18.7,18.7,0,41.7,0C64.7,0,83.4,18.7,83.4,41.7
			C83.4,41.7,83.4,41.7,83.4,41.7z"/>
		<path class="st6" d="M41.7,0h-1.3h-0.8l0.9,20h1.1V0z M37.7,0.2h-0.2h-0.1c-0.6,0.1-1.1,0.1-1.7,0.2l2.8,19.8c0.3,0,0.7-0.1,1-0.1
			L37.7,0.2z M33.7,0.8L33.7,0.8h-0.5c-0.5,0.1-1,0.2-1.4,0.3l4.7,19.4c0.3-0.1,0.7-0.2,1-0.2L33.7,0.8L33.7,0.8z M29.8,1.8L29,2
			l0,0h0l0,0h0l0,0h0L28,2.3l6.6,18.9c0.3-0.1,0.7-0.2,1-0.3L29.8,1.8L29.8,1.8z M26.1,3c-0.6,0.2-1.2,0.5-1.8,0.8L32.6,22
			c0.3-0.1,0.6-0.3,1-0.4L26.1,3z M22.4,4.7c-0.6,0.3-1.2,0.6-1.8,1l10.1,17.2c0.3-0.2,0.6-0.4,0.9-0.5L22.4,4.7z M19,6.7
			c-0.6,0.4-1.1,0.7-1.6,1.1L29,24.1c0.3-0.2,0.6-0.4,0.9-0.6L19,6.7z M15.8,9.1c-0.5,0.4-1,0.9-1.5,1.3l13.2,15
			c0.3-0.2,0.5-0.5,0.8-0.7L15.8,9.1z M12.8,11.7c-0.3,0.3-0.6,0.6-0.8,0.8l0,0l0,0l0,0l0,0l0,0l0,0l0,0L11.5,13l14.4,13.8
			c0.2-0.2,0.5-0.5,0.7-0.7L12.8,11.7L12.8,11.7z M10,14.6L10,14.6L10,14.6L10,14.6L10,14.6H9.9l0,0l0,0c-0.4,0.4-0.8,0.9-1.1,1.4
			l0,0l15.8,12.3c0.2-0.3,0.4-0.5,0.7-0.8L10,14.6z M7.6,17.8L7.4,18l0,0l0,0l0,0c-0.3,0.5-0.6,0.9-0.9,1.4l16.9,10.7
			c0.2-0.3,0.4-0.6,0.6-0.9L7.6,17.8z M5.4,21.1L5,22l0,0l-0.5,0.9l17.9,9c0.2-0.3,0.3-0.6,0.5-0.9L5.4,21.1z M3.6,24.7
			c-0.1,0.1-0.1,0.3-0.2,0.5l0,0v0.1l0,0c0,0,0,0,0,0.1l0,0c-0.2,0.4-0.4,0.8-0.5,1.3l18.6,7.3c0.1-0.3,0.3-0.6,0.4-1L3.6,24.7z
			 M2.2,28.4C2.1,28.7,2,29,1.9,29.2l0,0l0,0l0,0l0,0l0,0l0,0l0,0l0,0l0,0l0,0l0,0l0,0l0,0l0,0l0,0l0,0l0,0l0,0l0,0l0,0l0,0l0,0l0,0
			l0,0l0,0l0,0l0,0l0,0l0,0l0,0l0,0l0,0l0,0l0,0l0,0l0,0l0,0c-0.1,0.2-0.1,0.4-0.2,0.5L21,35.2c0.1-0.3,0.2-0.7,0.3-1l-19-6.4
			L2.2,28.4z M1.1,32.3c-0.1,0.5-0.2,1.1-0.3,1.6c0,0.1,0,0.2-0.1,0.4l19.7,3.5c0.1-0.3,0.1-0.7,0.2-1L1.1,32.3z M0.4,36.2
			c-0.1,0.4-0.1,0.8-0.2,1.3l0,0l0,0l0,0l0,0l0,0l0,0l0,0c0,0.2,0,0.4,0,0.6l19.9,1.7c0-0.3,0.1-0.7,0.1-1L0.4,36.2z M0,40.2v1l0,0
			l0,0l0,0v0.1l0,0v0.2l0,0l0,0l0,0l0,0l0,0l0,0l0,0l0,0l0,0l0,0l0,0l0,0l0,0c0,0.1,0,0.3,0,0.4L20,42v-0.3c0-0.3,0-0.5,0-0.8
			L0,40.2z M20,43L0.1,44.2c0,0.6,0.1,1.1,0.1,1.7l0,0l0,0l0,0l0,0l0,0l0,0l0,0c0,0.1,0,0.1,0,0.2L20.1,44C20.1,43.6,20,43.3,20,43
			L20,43z M20.2,45.1L0.5,48.2l0,0l0,0l0,0l0,0l0,0l0,0c0.1,0.5,0.2,1,0.3,1.6l0,0l0,0l0,0l0,0l0,0l0,0l0,0v0.2l19.6-4
			c-0.1-0.3-0.1-0.7-0.2-1L20.2,45.1z M20.6,47.1l-19.4,5c0.2,0.7,0.3,1.3,0.5,1.9L21,48.1C20.9,47.8,20.8,47.5,20.6,47.1L20.6,47.1
			z M21.2,49.1L2.5,55.9c0.2,0.6,0.5,1.2,0.7,1.9l18.5-7.7C21.5,49.7,21.4,49.4,21.2,49.1L21.2,49.1z M22,51L4,59.6l0.1,0.2l0,0l0,0
			l0,0c0.2,0.4,0.4,0.7,0.6,1.1l0,0l0,0l0,0l0,0l0,0l0,0l0,0c0,0.1,0.1,0.2,0.2,0.3l17.6-9.5c-0.2-0.3-0.3-0.6-0.5-0.9L22,51z
			 M23,52.8L5.9,63.1l0.3,0.5l0,0l0,0l0,0l0,0l0,0c0.2,0.4,0.5,0.8,0.7,1.1l16.6-11.1C23.4,53.3,23.2,53.1,23,52.8L23,52.8z
			 M24.2,54.5l-16,11.9l0.2,0.3l0,0l0,0l0,0l0,0l0,0l0,0l0,0l0,0l0,0l0,0l0,0l0,0l0,0l0,0l0,0l0,0l0,0l0,0l0,0l0,0l0,0l0,0l0,0l0,0
			l0,0l0,0l0,0c0.2,0.3,0.5,0.6,0.7,0.9L24.6,55c-0.2-0.3-0.4-0.5-0.6-0.8L24.2,54.5z M25.5,56.2L10.7,69.6c0.4,0.5,0.9,1,1.4,1.4
			l14.2-14.1C26,56.7,25.8,56.4,25.5,56.2L25.5,56.2z M27,57.7L13.5,72.4c0.2,0.2,0.5,0.5,0.8,0.7h0.1l0,0l0,0l0.7,0.6l12.8-15.3
			C27.5,58.1,27.3,57.9,27,57.7L27,57.7z M28.6,59L16.5,75c0.3,0.2,0.6,0.5,0.9,0.7l0.7,0.5l11.3-16.5C29.2,59.5,28.9,59.3,28.6,59
			L28.6,59z M30.3,60.2l-10.5,17l0.1,0.1l0,0l0,0l0,0c0.5,0.3,1,0.6,1.5,0.9l0,0l9.7-17.5C30.8,60.4,30.5,60.3,30.3,60.2L30.3,60.2z
			 M32.2,61.2l-8.8,18l0.3,0.2h0.2l0,0l0,0c0.4,0.2,0.8,0.4,1.3,0.6l8-18.3C32.8,61.5,32.5,61.3,32.2,61.2L32.2,61.2z M34.1,62
			L27,80.7c0.6,0.2,1.2,0.4,1.9,0.7l6.1-19L34.1,62L34.1,62z M36.1,62.6L30.8,82l0.2,0.1h0.2c0.5,0.1,1,0.3,1.5,0.4L37,62.9
			C36.7,62.8,36.3,62.7,36.1,62.6L36.1,62.6z M38.1,63.1l-3.3,19.7c0.5,0.1,1,0.2,1.5,0.2l0.5,0.1l2.4-19.9
			C38.7,63.2,38.4,63.1,38.1,63.1L38.1,63.1z M40.1,63.3l-1.4,20h0.4h0.1h1h0.5l0.5-20C40.9,63.3,40.5,63.3,40.1,63.3L40.1,63.3z
			 M43.3,63.3l-1,0l0.5,20h0.6h0.1l1.2-0.1h0.1L43.3,63.3L43.3,63.3z M45.4,63.1c-0.3,0.1-0.7,0.1-1,0.2l2.4,19.9
			c0.6-0.1,1.2-0.2,1.8-0.3h0.2L45.4,63.1L45.4,63.1z M47.4,62.6c-0.3,0.1-0.7,0.2-1,0.2l4.3,19.5h0.2h0.2l0.8-0.2h0.4l0.4-0.1
			l-5.2-19.3L47.4,62.6z M49.4,62l-1,0.3l6.1,19l0.9-0.3h0.2l0.8-0.3L49.4,62L49.4,62z M51.3,61.2l-1,0.4L58.2,80
			c0.3-0.2,0.7-0.3,1-0.5h0.2l0.6-0.3L51.3,61.2L51.3,61.2z M53.1,60.2c-0.3,0.2-0.6,0.4-0.9,0.5l9.7,17.5l0.2-0.1l0,0l0,0h0.1l0,0
			l0,0l1.4-0.8L53,60.3L53.1,60.2z M54.8,59c-0.3,0.2-0.6,0.4-0.8,0.6l11.3,16.5l0.8-0.5l0,0l0,0l0,0l0,0l0,0l0,0h0.1l0,0l0,0
			l0.6-0.4L54.8,59z M56.4,57.7c-0.3,0.2-0.5,0.5-0.8,0.7l12.8,15.3h0.3l0,0l0,0l0,0l0,0l1-0.9l0,0l0,0l0,0l0,0l0,0L56.4,57.7z
			 M57.9,56.2c-0.2,0.3-0.5,0.5-0.7,0.8L71.4,71l0,0l0,0l0,0l0.9-1l0,0l0,0l0,0l0,0l0,0l0,0l0,0c0.1-0.1,0.2-0.2,0.3-0.3
			C72.6,69.7,57.8,56.2,57.9,56.2z M59.2,54.6c-0.2,0.3-0.4,0.5-0.6,0.8L74,68l0,0l0,0l0,0l0,0l0,0l0,0l0,0l0,0l0,0l0,0l0,0
			c0.2-0.3,0.4-0.5,0.6-0.8l0,0l0,0l0,0l0,0l0,0l0,0l0,0l0,0l0,0c0.1-0.2,0.2-0.3,0.3-0.5C75,66.7,59.2,54.6,59.2,54.6z M60.3,52.8
			c-0.2,0.3-0.4,0.6-0.5,0.9l16.6,11.1l0.1-0.2l0,0l0,0c0.3-0.5,0.6-1,0.9-1.4l0,0l0,0l0,0C77.4,63.2,60.3,52.8,60.3,52.8z M61.3,51
			c-0.1,0.3-0.3,0.6-0.5,0.9l17.6,9.5l0.3-0.5l0.4-0.8l0,0l0,0l0,0l0,0l0,0l0,0l0,0c0.1-0.1,0.1-0.2,0.2-0.3L61.3,51L61.3,51z
			 M62.1,49.1c-0.1,0.3-0.2,0.6-0.4,1l18.5,7.7c0.1-0.2,0.2-0.5,0.3-0.7l0,0l0,0l0,0l0,0l0,0l0,0l0,0c0.1-0.4,0.3-0.7,0.4-1.1
			L62.1,49.1L62.1,49.1z M62.7,47.1c-0.1,0.3-0.2,0.7-0.3,1L81.5,54c0-0.1,0.1-0.3,0.1-0.4l0,0l0,0l0,0l0,0l0,0l0,0l0,0l0,0l0,0l0,0
			l0,0l0,0l0,0l0,0l0,0l0,0l0,0l0,0l0,0l0,0l0,0c0.1-0.4,0.2-0.8,0.3-1.2l-19.4-5L62.7,47.1z M63.1,45.1c0,0.3-0.1,0.7-0.2,1l19.6,4
			c0.1-0.6,0.2-1.2,0.3-1.7c0-0.1,0-0.2,0-0.2L63.1,45.1L63.1,45.1z M63.3,43c0,0.3,0,0.7-0.1,1l19.9,2.1c0-0.2,0-0.5,0.1-0.7l0,0
			l0,0l0,0l0,0l0,0l0,0c0-0.4,0.1-0.8,0.1-1.1v-0.1L63.3,43z M83.3,40.2l-20,0.7c0,0.3,0,0.5,0,0.8V42l20,0.2v-0.4l0,0l0,0l0,0l0,0
			l0,0l0,0l0,0v-0.1l0,0l0,0l0,0v-0.2l0,0l0,0l0,0v-0.3l0,0l0,0l0,0c0-0.2,0-0.3,0-0.4l0,0v-0.1l0,0v-0.2l0,0
			C83.3,40.4,83.3,40.3,83.3,40.2L83.3,40.2z M83,36.2l-19.8,2.6c0,0.3,0.1,0.7,0.1,1l19.9-1.7c0-0.2,0-0.3,0-0.5l0,0l0,0l0,0l0,0
			l0,0l0,0l0,0l0,0l0,0c0-0.5-0.1-0.9-0.2-1.4L83,36.2z M82.3,32.2l-19.5,4.5l0.2,1l19.7-3.6c-0.1-0.3-0.1-0.6-0.2-1l0,0l0,0l0,0
			l0,0l0,0l0,0l0,0l0,0l0,0l0,0l0,0l0,0l0,0l0,0l0,0l0,0l0,0l0,0l0,0l0,0l0,0l0,0l0,0l-0.1-0.3l0,0v-0.1l0,0l0,0l0,0l-0.1-0.2
			L82.3,32.2z M81.2,28.4l-19,6.4c0.1,0.3,0.2,0.7,0.3,1l19.2-5.4l0,0l0,0l0,0l0,0l0,0l0,0l0,0c-0.1-0.5-0.3-1-0.4-1.5l0,0l0,0l0,0
			c0-0.1-0.1-0.2-0.1-0.3V28.4z M79.8,24.7l-18.2,8.2c0.1,0.3,0.3,0.6,0.4,1l18.6-7.3C80.3,26,80,25.3,79.8,24.7L79.8,24.7z
			 M78,21.1L60.6,31c0.2,0.3,0.3,0.6,0.5,0.9l17.8-9c-0.3-0.5-0.5-1-0.8-1.5l0,0l0,0l0,0l0,0l0,0l0,0l0,0l0,0l0,0l0,0l0,0l0,0l0,0
			l0,0l0,0L78,21.1z M75.9,17.8L59.5,29.2c0.2,0.3,0.4,0.6,0.6,0.9l16.9-10.7l-0.1-0.2l0,0l0,0l0,0c-0.2-0.3-0.4-0.7-0.7-1l0,0l0,0
			l0,0L75.9,17.8L75.9,17.8z M73.4,14.6l-15.2,13c0.2,0.3,0.4,0.5,0.7,0.8l15.8-12.3L74.5,16l0,0l0,0l0,0l0,0l0,0l0,0l0,0l0,0l0,0
			l0,0l0,0l0,0l0,0l0,0l0,0l0,0l0,0l0,0l0,0l0,0l0,0l0,0l0,0l0,0l0,0l0,0l0,0l0,0l0,0l0,0l0,0l0,0l0,0l0,0l0,0l0,0l0,0l0,0l0,0l0,0
			l0,0l0,0l0,0l0,0l0,0l0,0l0,0l0,0l0,0l0,0l0,0l0,0l0,0l0,0l0,0l0,0l0,0l0,0l0,0l0,0l0,0l0,0l0,0l0,0l0,0l0,0l0,0l0,0l0,0l0,0l0,0
			l0,0l0,0l0,0l0,0l0,0l0,0l0,0l0,0l-0.1-0.1L73.4,14.6z M70.7,11.7L56.8,26.1c0.2,0.2,0.5,0.5,0.7,0.7L72,13.1l0,0
			C71.5,12.6,71.1,12.1,70.7,11.7L70.7,11.7z M67.6,9L55.2,24.7c0.3,0.2,0.5,0.4,0.8,0.7l13.2-15l-0.2-0.2l0,0l0,0l0,0
			c-0.4-0.4-0.8-0.7-1.3-1L67.6,9z M64.4,6.7L53.5,23.5c0.3,0.2,0.6,0.4,0.9,0.6L66,7.8l-0.5-0.3l0,0L65,7.1l0,0l0,0l0,0l0,0l0,0
			L64.4,6.7L64.4,6.7z M60.9,4.7l-9.2,17.7l0.9,0.5L62.7,5.7l-0.4-0.2l0,0h0l0,0l0,0l0,0C61.8,5.2,61.4,5,60.9,4.7L60.9,4.7z
			 M57.3,3l-7.5,18.6l1,0.4l8.4-18.2h-0.3c-0.5-0.2-1-0.4-1.5-0.7V3z M53.5,1.7l-5.7,19.2l1,0.3l6.6-18.9l-1.3-0.4h-0.2L53.5,1.7
			L53.5,1.7z M49.6,0.8l-3.8,19.6l1,0.2l4.7-19.4h-0.2l-0.8-0.2h-0.2L49.6,0.8z M45.6,0.2l-1.8,19.9c0.3,0,0.7,0.1,1,0.1l2.9-19.8
			l-0.5-0.1H47l-0.9-0.1H46L45.6,0.2L45.6,0.2z M41.6,0v20h1l0.9-20c-0.4,0-0.8,0-1.2,0H41.6z"/>
	</g>
	<path class="st7" d="M41.7,2c21.9,0,39.7,17.8,39.7,39.7S63.6,81.4,41.7,81.4C19.8,81.4,2,63.6,2,41.7C2,19.8,19.8,2,41.7,2
		 M41.7,0C18.7,0,0,18.7,0,41.7s18.7,41.7,41.7,41.7c23,0,41.7-18.7,41.7-41.7C83.4,18.7,64.7,0,41.7,0C41.7,0,41.7,0,41.7,0z"/>
	<g class="st8">
		<path d="M77.7,41.7c0,19.9-16.1,36-36,36s-36-16.1-36-36s16.1-36,36-36S77.7,21.8,77.7,41.7z"/>
	</g>
	<g>
		<path class="st9" d="M41.7,69.8c-15.5,0-28.1-12.6-28.1-28.1c0-15.5,12.6-28.1,28.1-28.1c15.5,0,28.1,12.6,28.1,28.1c0,0,0,0,0,0
			C69.8,57.2,57.2,69.8,41.7,69.8z"/>
		<path class="st5" d="M41.7,16.6c13.9,0,25.1,11.3,25.1,25.1S55.6,66.8,41.7,66.8S16.6,55.6,16.6,41.7c0,0,0,0,0,0
			C16.6,27.8,27.8,16.6,41.7,16.6 M41.7,10.6c-17.2,0-31.1,13.9-31.1,31.1c0,17.2,13.9,31.1,31.1,31.1s31.1-13.9,31.1-31.1
			c0,0,0,0,0,0C72.8,24.5,58.9,10.6,41.7,10.6z"/>
	</g>
</g>
</svg>
